<svg width="202" height="32" viewBox="0 0 202 32" fill="none" xmlns="http://www.w3.org/2000/svg">
<path d="M22.697 11.3961V31.6989H1.01116e-06V11.3961C-0.000628283 9.90563 0.29248 8.42963 0.862573 7.05248C1.43267 5.67533 2.26857 4.42404 3.3225 3.3701C4.37643 2.31617 5.62773 1.48027 7.00487 0.91018C8.38202 0.340087 9.85802 0.0469791 11.3485 0.0476084C14.3576 0.0612903 17.243 1.24638 19.393 3.3516C21.5171 5.48918 22.7055 8.38268 22.697 11.3961Z" fill="url(#paint0_linear_538_1052)"/>
<path d="M42.5688 11.3964V31.6992H29.7838C34.5722 31.6992 38.4508 28.06 38.4508 23.5589C38.4477 22.4778 38.2206 21.409 37.7838 20.42C37.347 19.431 36.71 18.5433 35.9129 17.8128C34.2504 16.2616 32.0576 15.4051 29.7838 15.4186H25.6658V11.3485C25.6659 8.56005 24.6437 5.86831 22.7927 3.78283C23.8621 2.59439 25.1691 1.64362 26.629 0.992005C28.089 0.34039 29.6694 0.00243713 31.2682 0C34.2772 0.0136819 37.1627 1.19877 39.3127 3.30399C41.3974 5.48296 42.5634 8.38077 42.5688 11.3964Z" fill="url(#paint1_linear_538_1052)"/>
<path d="M87.2449 27.3901H83.4621V14.9882L76.7583 26.7676C76.6124 27.0571 76.3774 27.2921 76.0879 27.438C75.7912 27.59 75.4636 27.6719 75.1302 27.6774C74.8122 27.6718 74.5001 27.5896 74.2204 27.438C73.9309 27.2921 73.6959 27.0571 73.5501 26.7676L66.8463 14.9882V27.3901H63.0635V8.18863C63.0658 7.77459 63.2 7.37207 63.4465 7.03941C63.685 6.69697 64.0443 6.45747 64.4521 6.36904C64.6568 6.32742 64.8659 6.31133 65.0746 6.32115C65.2755 6.31756 65.4737 6.36712 65.6492 6.4648C65.8301 6.5504 66.006 6.64633 66.1759 6.75211C66.329 6.88964 66.4584 7.05142 66.559 7.23095L75.1302 22.1707L83.7015 7.23095C83.9068 6.87784 84.2284 6.60702 84.6113 6.4648C85.0082 6.31265 85.4408 6.27937 85.8563 6.36904C86.2533 6.4818 86.605 6.71626 86.8618 7.03941C87.1083 7.37207 87.2425 7.77459 87.2449 8.18863V27.3901Z" fill="#100146"/>
<path d="M108.17 22.0748C108.174 22.658 108.094 23.2387 107.93 23.7986C107.795 24.2845 107.568 24.7398 107.26 25.1394C106.991 25.5193 106.669 25.8581 106.302 26.1449C105.964 26.4131 105.595 26.6383 105.201 26.8153C104.82 26.9929 104.418 27.1216 104.004 27.1984C103.628 27.2932 103.242 27.3415 102.855 27.342H96.0553C95.4696 27.3324 94.8886 27.2356 94.3314 27.0547C93.7025 26.8679 93.1167 26.5587 92.6076 26.1449C92.063 25.6907 91.6082 25.1385 91.2669 24.5169C90.8982 23.7397 90.7178 22.8867 90.7401 22.0269V16.9991C90.7228 16.1551 90.9032 15.3188 91.2669 14.557C91.5839 13.952 92.0182 13.416 92.5443 12.9803C93.0704 12.5446 93.6779 12.2179 94.3314 12.0192C94.8886 11.8383 95.4696 11.7414 96.0553 11.7319H102.855C103.699 11.7145 104.535 11.8949 105.297 12.2586C105.934 12.5546 106.492 12.9977 106.925 13.5514C107.339 14.0606 107.648 14.6464 107.835 15.2753C108.016 15.8324 108.112 16.4134 108.122 16.9991V22.0748H108.17ZM104.387 16.9991C104.417 16.791 104.397 16.5788 104.331 16.3794C104.264 16.18 104.152 15.9989 104.004 15.8502C103.855 15.7016 103.674 15.5896 103.474 15.523C103.275 15.4565 103.063 15.4372 102.855 15.4668H96.1031C95.6866 15.4534 95.2791 15.5893 94.9539 15.8499C94.6861 16.1522 94.5484 16.548 94.5708 16.9512V22.0748C94.5575 22.4913 94.6933 22.8989 94.9539 23.224C95.1045 23.3699 95.286 23.4801 95.4849 23.5465C95.6838 23.6128 95.8951 23.6335 96.1031 23.6071H102.855C103.063 23.6367 103.275 23.6174 103.474 23.5509C103.674 23.4843 103.855 23.3723 104.004 23.2237C104.152 23.075 104.264 22.8938 104.331 22.6944C104.397 22.495 104.417 22.2829 104.387 22.0748V16.9991Z" fill="#100146"/>
<path d="M126.557 27.3895H116.358C115.772 27.38 115.191 27.2831 114.634 27.1022C114.005 26.9154 113.419 26.6062 112.91 26.1924C112.366 25.7382 111.911 25.186 111.57 24.5644C111.201 23.7873 111.021 22.9342 111.043 22.0744V16.9987C111.049 16.6116 111.097 16.2263 111.187 15.8495C111.27 15.4377 111.399 15.0363 111.57 14.6524C111.747 14.259 111.972 13.889 112.24 13.5511C112.539 13.1963 112.877 12.8752 113.246 12.5934C113.662 12.3134 114.112 12.0881 114.586 11.923C115.148 11.7665 115.727 11.686 116.31 11.6836H126.509V15.4664H116.31C115.907 15.444 115.511 15.5817 115.209 15.8495C115.072 16.0063 114.968 16.1886 114.902 16.3858C114.837 16.5831 114.811 16.7914 114.826 16.9987V22.0744C114.812 22.4909 114.948 22.8985 115.209 23.2236C115.359 23.3696 115.541 23.4798 115.74 23.5461C115.939 23.6124 116.15 23.6331 116.358 23.6067H126.557V27.3895Z" fill="#100146"/>
<path d="M133.501 27.3891H129.718V5.0752H133.501V27.3891ZM148.057 27.3891H142.599L134.985 20.0629C134.779 19.8891 134.618 19.6671 134.518 19.4165C134.418 19.166 134.381 18.8946 134.41 18.6264C134.423 18.3608 134.488 18.1004 134.602 17.8602C134.734 17.6331 134.895 17.4239 135.081 17.2377L141.976 11.6832H148.057L139.199 18.8179L148.057 27.3891Z" fill="#100146"/>
<path d="M150.547 27.3902V6.41699H160.698C162.614 6.41699 164.098 6.89583 165.104 7.9014C165.602 8.40294 165.991 9.00219 166.247 9.66146C166.502 10.3207 166.618 11.0257 166.588 11.7321C166.614 12.7586 166.348 13.7713 165.822 14.653C165.281 15.492 164.496 16.1441 163.571 16.5205V16.5684C164.737 16.8491 165.77 17.5262 166.492 18.4838C167.216 19.4663 167.587 20.664 167.546 21.8835C167.543 22.6497 167.414 23.4102 167.163 24.1341C166.912 24.8007 166.52 25.4052 166.013 25.9058C165.455 26.4087 164.805 26.7989 164.098 27.055C163.27 27.3571 162.393 27.5032 161.512 27.4859H150.547V27.3902ZM152.893 8.52389V15.6586H160.555C161.062 15.6935 161.571 15.6221 162.049 15.449C162.528 15.2758 162.964 15.0047 163.332 14.653C163.976 13.9488 164.319 13.021 164.29 12.0673C164.335 11.1197 164.009 10.1917 163.38 9.48157C162.757 8.81119 161.8 8.476 160.459 8.476H152.893V8.52389ZM152.893 17.7655V25.2833H161.273C162.614 25.2833 163.619 24.9481 164.29 24.2298C164.947 23.4956 165.291 22.533 165.247 21.5483C165.272 21.0522 165.191 20.5565 165.009 20.0942C164.828 19.6318 164.55 19.2134 164.194 18.8668C163.812 18.5051 163.36 18.2251 162.866 18.044C162.372 17.8629 161.846 17.7844 161.321 17.8134H152.893V17.7655Z" fill="#100146"/>
<path d="M186.412 19.4409C186.428 20.5883 186.217 21.7275 185.79 22.7928C185.388 23.7836 184.784 24.6804 184.018 25.4264C183.222 26.1637 182.297 26.7481 181.289 27.1502C179.065 27.9801 176.617 27.9801 174.393 27.1502C173.4 26.7473 172.491 26.1627 171.712 25.4264C170.946 24.6804 170.342 23.7836 169.94 22.7928C169.509 21.7288 169.298 20.5887 169.318 19.4409C169.302 18.2935 169.513 17.1543 169.94 16.089C170.342 15.0981 170.946 14.2014 171.712 13.4554C172.499 12.729 173.406 12.1457 174.393 11.7316C176.617 10.9017 179.065 10.9017 181.289 11.7316C182.297 12.1337 183.222 12.718 184.018 13.4554C184.784 14.2014 185.388 15.0981 185.79 16.089C186.194 17.1607 186.404 18.2956 186.412 19.4409ZM177.889 25.8095C178.738 25.8331 179.584 25.684 180.374 25.3712C181.164 25.0585 181.883 24.5885 182.486 23.9899C183.057 23.4207 183.498 22.7346 183.779 21.9787C184.089 21.1683 184.251 20.3087 184.258 19.4409C184.28 17.752 183.645 16.1206 182.486 14.8919C181.256 13.6927 179.607 13.0215 177.889 13.0215C176.171 13.0215 174.522 13.6927 173.292 14.8919C172.721 15.4611 172.28 16.1472 171.999 16.903C171.689 17.7135 171.527 18.5731 171.52 19.4409C171.498 21.1298 172.133 22.7612 173.292 23.9899C173.895 24.5885 174.614 25.0585 175.404 25.3712C176.194 25.684 177.039 25.8331 177.889 25.8095Z" fill="#100146"/>
<path d="M201.304 21.5477C201.325 22.4759 201.179 23.4003 200.873 24.2771C200.603 25.0126 200.178 25.6819 199.628 26.2403C199.077 26.7769 198.403 27.1713 197.665 27.3895C196.86 27.6443 196.02 27.7735 195.175 27.7726C194.315 27.7734 193.459 27.6442 192.637 27.3895C191.908 27.1523 191.238 26.7603 190.674 26.2403C190.124 25.6819 189.7 25.0126 189.429 24.2771C189.123 23.4003 188.978 22.4759 188.998 21.5477V5.9375H191.153V11.5399H200.49V13.5032H191.153V21.5477C191.153 22.9842 191.536 24.0855 192.254 24.7559C192.653 25.1222 193.121 25.4043 193.631 25.5854C194.141 25.7664 194.683 25.8426 195.223 25.8093C196.303 25.8526 197.36 25.4944 198.192 24.8038C198.958 24.1334 199.293 23.0321 199.293 21.5477V21.2125H201.4V21.5477H201.304Z" fill="#100146"/>
<defs>
<linearGradient id="paint0_linear_538_1052" x1="1.01116e-06" y1="15.8733" x2="22.697" y2="15.8733" gradientUnits="userSpaceOnUse">
<stop stop-color="#0E4EAB"/>
<stop offset="0.62" stop-color="#0974A9"/>
<stop offset="1" stop-color="#0686A8"/>
</linearGradient>
<linearGradient id="paint1_linear_538_1052" x1="22.7927" y1="15.8496" x2="42.6071" y2="15.8496" gradientUnits="userSpaceOnUse">
<stop stop-color="#B315E1"/>
<stop offset="0.43" stop-color="#8820E1"/>
<stop offset="1" stop-color="#482FE1"/>
</linearGradient>
</defs>
</svg>
